# xmcd
#
# Track frame offsets:
#	150
#	16060
#	32965
#	53430
#	70468
#	83580
#	100273
#	116528
#	139190
#	165150
#	185908
#	207160
#	223730
#
# Disc length: 3354 seconds
#
# Revision: 4
# Processed by: cddbd v1.4PL0 Copyright (c) Steve Scherf et al.
# Submitted via: EasyCDDAExtractor 4.6.9.1
#
DISCID=af0d180d
DTITLE=Mary Chapin Carpenter - Stones In The Road
DYEAR=1994
DGENRE=Country
TTITLE0=Why Walk When You Can Fly
TTITLE1=House Of Cards
TTITLE2=Stones In the Road
TTITLE3=A Keeper For Every Flame
TTITLE4=Tender When I Want To Be
TTITLE5=Shut Up And Kiss Me
TTITLE6=The Last Word
TTITLE7=The End Of My Pirate Days
TTITLE8=John Doe No. 24
TTITLE9=Jubilee
TTITLE10=Outside Looking In
TTITLE11=Where Time Stands Still
TTITLE12=This Is Love
EXTD=
EXTT0=
EXTT1=
EXTT2=
EXTT3=
EXTT4=
EXTT5=
EXTT6=
EXTT7=
EXTT8=
EXTT9=
EXTT10=
EXTT11=
EXTT12=
PLAYORDER=
